<svg xmlns="http://www.w3.org/2000/svg" viewBox="0 0 400 102"><defs><style>.cls-1{fill:#fff;}</style></defs><title>hoodoo-logo-white</title><g id="Hoodoo_Dark" data-name="Hoodoo Dark"><g id="Hoodoo_Dark-2" data-name="Hoodoo Dark"><g id="o"><path class="cls-1" d="M370.56,86.07A24.44,24.44,0,1,1,395,61.63,24.47,24.47,0,0,1,370.56,86.07Zm0-42.86A18.42,18.42,0,1,0,389,61.63,18.44,18.44,0,0,0,370.56,43.21Z"/></g><g id="o-2" data-name="o"><path class="cls-1" d="M303.08,86.07a24.44,24.44,0,1,1,24.44-24.44A24.47,24.47,0,0,1,303.08,86.07Zm0-42.86a18.42,18.42,0,1,0,18.41,18.42A18.44,18.44,0,0,0,303.08,43.21Z"/></g><g id="d"><path class="cls-1" d="M257.12,15.93a3,3,0,0,0-2.92,3V45.89A24.36,24.36,0,1,0,260,61.69h0V19A3,3,0,0,0,257.12,15.93ZM235.6,80.06A18.37,18.37,0,1,1,254,61.69,18.42,18.42,0,0,1,235.6,80.06Z"/></g><g id="o-3" data-name="o"><path class="cls-1" d="M168.12,86.07a24.44,24.44,0,1,1,24.44-24.44A24.47,24.47,0,0,1,168.12,86.07Zm0-42.86a18.42,18.42,0,1,0,18.41,18.42A18.43,18.43,0,0,0,168.12,43.21Z"/></g><g id="o-4" data-name="o"><path class="cls-1" d="M100.64,86.07a24.44,24.44,0,1,1,24.44-24.44A24.47,24.47,0,0,1,100.64,86.07Zm0-42.86a18.42,18.42,0,1,0,18.42,18.42A18.43,18.43,0,0,0,100.64,43.21Z"/></g><g id="H"><path class="cls-1" d="M54.76,15.93a3,3,0,0,0-3,3V55.43a4.05,4.05,0,0,1-3.95,4.07H13.08a2.3,2.3,0,0,1-2.24-2.33V33.59a3,3,0,0,0-3-2.91A2.82,2.82,0,0,0,5,33.59V83.15a2.83,2.83,0,0,0,2.84,2.92,3,3,0,0,0,3-2.92V67.68a2.29,2.29,0,0,1,2.23-2.33H49.44a2.44,2.44,0,0,1,2.32,2.41V83.15a3,3,0,0,0,3,2.92,2.83,2.83,0,0,0,2.84-2.92V18.94A2.9,2.9,0,0,0,54.76,15.93Z"/></g></g></g></svg>